/* XPM */
static char *_eed5f265e58433ff76e680dbf05d48dVjMXhcdtbyPk6R14[] = {
/* columns rows colors chars-per-pixel */
"64 64 166 2 ",
"   c #00070C",
".  c #00090E",
"X  c #000E14",
"o  c #001017",
"O  c #00131A",
"+  c #001720",
"@  c #001A24",
"#  c #001E2A",
"$  c #00212E",
"%  c #012533",
"&  c #012837",
"*  c #002738",
"=  c #012A3B",
"-  c #012E41",
";  c #013245",
":  c #00354C",
">  c #01394F",
",  c #003A54",
"<  c #003E5A",
"1  c #00415D",
"2  c #004462",
"3  c #004966",
"4  c #004769",
"5  c #004A6C",
"6  c #01506F",
"7  c #004E71",
"8  c #005174",
"9  c #00557A",
"0  c #00597E",
"q  c #005C82",
"w  c #006187",
"e  c #00638A",
"r  c #006790",
"t  c #006A93",
"y  c #017196",
"u  c #01749B",
"i  c #01799F",
"p  c #0076A2",
"a  c #017BA2",
"s  c #007DA9",
"d  c #0280A6",
"f  c #0183AB",
"g  c #048AAF",
"h  c #0B8BAF",
"j  c #0083B0",
"k  c #038DB2",
"l  c #0B8EB2",
"z  c #008EBC",
"x  c #0491B4",
"c  c #0B91B5",
"v  c #0294BA",
"b  c #0B96B9",
"n  c #049ABE",
"m  c #139EBF",
"M  c #0094C2",
"N  c #039DC3",
"B  c #0C9CC1",
"V  c #009FC8",
"C  c #139FC0",
"Z  c #0DA0C4",
"A  c #03A4CA",
"S  c #04A8CD",
"D  c #12A2C3",
"F  c #11A8C7",
"G  c #11A7C9",
"H  c #11AACA",
"J  c #11B0CF",
"K  c #00ADD5",
"L  c #0AADD2",
"P  c #13AFD0",
"I  c #04B0D5",
"U  c #01B4DB",
"Y  c #02B9DE",
"T  c #0FBCDD",
"R  c #12B3D3",
"E  c #11B7D8",
"W  c #11BBDB",
"Q  c #00BEE1",
"!  c #0DBFE0",
"~  c #26C3DE",
"^  c #2AC5DD",
"/  c #2FC8DE",
"(  c #02C2E4",
")  c #0DC4E3",
"_  c #0BCAE7",
"`  c #06CDEB",
"'  c #0BCCE9",
"]  c #0BD3EE",
"[  c #13D7EF",
"{  c #14DBF2",
"}  c #1CDFF4",
"|  c #2ECDE3",
" . c #2CD2E5",
".. c #2DD6E9",
"X. c #2DD9EC",
"o. c #32DCEF",
"O. c #37DCED",
"+. c #36DCEE",
"@. c #37DEEE",
"#. c #37DFEF",
"$. c #37DEEF",
"%. c #35DBEF",
"&. c #38DFEF",
"*. c #3ADEEF",
"=. c #2EDEF1",
"-. c #2BDFF1",
";. c #32DDF0",
":. c #37DFF0",
">. c #36DEF0",
",. c #34DDF0",
"<. c #38DFF0",
"1. c #3ADFF0",
"2. c #15E0F5",
"3. c #1AE1F5",
"4. c #1FE7F8",
"5. c #2DE0F3",
"6. c #2DE2F4",
"7. c #2BE5F6",
"8. c #2AE2F4",
"9. c #20E7F8",
"0. c #29E9F8",
"q. c #2AE9F8",
"w. c #28E9F8",
"e. c #37E0F0",
"r. c #37E0F1",
"t. c #37E1F1",
"y. c #37E1F0",
"u. c #37E2F1",
"i. c #37E2F2",
"p. c #32E7F4",
"a. c #32E6F4",
"s. c #38E0F0",
"d. c #38E1F1",
"f. c #3CE3F1",
"g. c #3CE3F2",
"h. c #3DE6F4",
"j. c #3BE2F1",
"k. c #33E8F6",
"l. c #33E9F6",
"z. c #3BE9F7",
"x. c #34EBF8",
"c. c #33EDFA",
"v. c #38EEFA",
"b. c #39EDF9",
"n. c #2EF1FC",
"m. c #2FF2FD",
"M. c #2EF1FD",
"N. c #33F5FD",
"B. c #31F6FE",
"V. c #31F3FD",
"C. c #3BF6FE",
"Z. c #35F9FF",
"A. c #38F9FF",
"S. c #3DFCFF",
"D. c #45FEFF",
"F. c #49F9FF",
"G. c #49FBFF",
"H. c #4AFAFF",
"J. c #4AFEFF",
"K. c #4BFEFF",
"L. c #4FFFFF",
"P. c #4AFCFF",
"I. c #52FFFF",
"U. c #53FFFF",
"Y. c #58FFFF",
"T. c #59FFFF",
/* pixels */
"    . X X X X X X X X X X X X X X X X X X X X X X X X X X X X X X X X X X X X X X X X X X X X X X X X X X X X X X X X X X . .   ",
"  . X X X o o o o o o o o o o o o o o o o o o o o o o o o o o o o o o o o o o o o o o o o o o o o o o o o o o o o o o X X X X . ",
". X X o O O + + + @ + + + + + @ @ @ @ @ @ @ @ @ @ @ @ @ + + @ + @ + @ @ @ @ @ @ @ @ # # @ @ @ @ @ + @ @ + + + + + + + O o X X . ",
". X o O # % = = = = = = = = = = = = = = = = = = = = = = = = = = = = = = = = = = = = = = = = = = = = = = = = = = = = % # + o X X ",
"X X o @ - 3 0 0 0 0 9 9 9 9 9 9 9 9 9 9 9 0 q q q 0 9 9 0 0 0 0 0 0 0 9 9 9 0 q q q q 0 0 9 0 0 9 9 9 8 8 8 8 9 0 9 3 - # O X X ",
"X X O $ 1 C <.+.+.+.&.s.+.&.t.t.t.t.t.t.t.s.:.;.+.+.+.:.t.t.t.t.t.t.t.t.+.+.+.+.o.:.t.t.s.t.t.t.t.t.+.+.+.+.+.+.+.<.G 1 $ O X X ",
"X o + % 5 ^ L.0.=.X.....................X.5.N.Y.N.6.X.X.................X.X.5.m.Y.A.7.=.X.X...........X.X.X.X.=.0.I.| 5 % + o X ",
"X o + % 5 ^ m.M t q 9 9 8 8 9 9 9 9 9 9 w p U J.Y s e q 9 9 9 9 9 9 9 9 0 q u K G._ f e q 9 9 9 9 9 9 9 9 0 q t z b./ 5 % + o X ",
"X o + % 5 ^ x.y 1 : - = = = = = = = - ; , 5 B J.N 8 , ; - = = = - - - ; : , 5 k G.E 0 < ; - - = = = = = - ; : 1 t h.| 5 % + o X ",
"X o + % 5 ^ k.e : = $ # # # # # # # $ % = 1 c J.v 2 - % # # # # # # # $ % = < s G.J 5 ; % $ # # # # # # # $ % : q f.| 5 % + o X ",
"X o + % 5 ^ a.q ; % @ + + O O O + + + # % , l J.x < = # + + O O O O + + # % , u G.H 5 = # @ + + O O O O + @ % ; q f.| 5 % + o X ",
"X o + % 5 ^ a.q ; # + O o o o o o O O @ % , l J.x < % @ O O o o o o O O @ % : u G.H 2 = # + O o o o o o O + $ ; 0 s.| 5 % + o X ",
"X o + % 4 ^ a.0 - # + o o o o o o o O @ % , h J.k , % @ O o o o o o o O @ % : y G.H 2 = # O o o o o o o o O # - 0 f.| 5 & + o X ",
"X o + % 4 ^ a.0 - # O o o o X o o o O @ % , h J.k , % + O o o o o o o O @ % : y G.G 2 % @ O o o o o X o o O # - 0 f.| 5 % + o X ",
"X o + % 4 ^ a.0 = # O o o o o o o o O @ % , h J.k , % + O o o o o o o O + % : y G.G 2 % @ O o o o o o o o O # - 0 f.| 5 & + o X ",
"X o + & 5 ^ a.0 = # O o o o o o o o O @ % , h J.k , % + O o o o X o o O + % : y G.G 2 % @ O o o o o o o o O # - 0 f.| 5 = @ o X ",
"X o + & 5 ^ a.0 - # O o o o o o o o O @ % , l J.k , % + O o o o o o o O @ % : y G.G 2 % @ O o o o o o o o O # - 0 f.| 5 = @ o X ",
"X o + & 5 ^ a.0 - # + o o o o o o O + @ % < l J.k , % @ O o o o o o o O @ % : u G.G 2 = # O o o o o o o O + # - q f.| 5 = + o X ",
"X o + = 5 ^ a.q ; $ + O O O O o O O + # = < c J.x < % # + O O O O O O + # % , i G.G 2 = # + O O O o O O O @ $ ; q f.| 7 = + o X ",
"X o + = 5 ^ a.q : % # @ + + + + + @ # % = 2 b J.v 1 = $ # @ + + + + @ # $ = , s G.H 5 - % # @ + + + + @ @ # % : e g.| 7 = @ o X ",
"X o @ = 5 ^ a.t < ; = % % % % % % % % = : 8 B J.N 5 : = & % % % % % % % = ; 2 f G.R 9 > = % % % % % % % % = ; 1 t h.| 7 = @ o X ",
"X o @ = 5 ^ c.f 9 2 1 < < , < < < < < 2 5 t I J.I r 5 2 < < , , , , , < 1 5 w V G.) y 8 2 < , , , , < , < < 2 9 j b.| 7 = @ o X ",
"X o @ = 7 ^ S.) P D D D D C D D D D D D G W } L.{ E G D D D C C D D m C D D E [ L.9.T G D m m m m m m m m D D H ) D.| 8 = @ o X ",
"X o @ = 7 ~ Y.D.J.G.G.G.G.G.G.G.G.G.G.G.G.J.L.U.J.J.G.G.G.G.G.G.G.G.G.G.G.G.J.J.U.L.J.G.G.G.G.G.G.G.G.G.G.G.G.J.D.Y.| 8 = @ o X ",
"X o @ = 5 ^ Z.U v d s a a a a a a s s d k V ] L.` V f s a a a a a a a a s d v Q L.{ A k d a a i u u i i a a d v U A.| 8 = @ o X ",
"X o @ = 5 ^ c.s 8 1 , : : : : : : : , < 2 q L J.S q 2 < , : : : : : : : , 1 8 v G.W r 5 < , : : : : : : : , < 8 s z.| 7 = @ o X ",
"X o @ = 5 ^ k.t < = % % $ $ $ $ % % % = ; 5 B J.n 5 ; = % % $ $ $ % % % = - 1 d G.R 8 : = % % $ $ $ $ $ % % = < e g.| 7 = @ o X ",
"X o @ & 5 ^ k.w ; % # @ + + + + + + @ $ = 1 b J.v 1 = # @ + + + + + + # # * , a G.H 5 = $ # + + + + + + @ # % : q s. .7 = # o X ",
"X o @ = 5 ^ a.q ; $ + O O o o o O O + # % < c J.x < % # + O o o o o O + @ % : u G.G 2 = # + O O O o O O O @ $ ; q f.| 7 = @ o X ",
"X o @ = 5 ^ a.0 - # + o o o o o o o O @ % , l J.k , % @ O o o o o o o O @ % : u G.F 2 = # + O o o o o o O + # ; q s. .7 = @ o X ",
"X o @ = 5 ^ a.q - # + o o o X X o o O @ % , l J.k , % + O o o o o o o O + % : u G.F 1 % @ O o o X X o o o + # - q s. .7 = @ o X ",
"X o @ = 5 ^ a.q - # + o o o X X o o o @ % , l J.k , % + O o o X X X o o + % ; u G.G 1 % @ O o X X o X o o + # - q f.| 7 = @ o X ",
"X o @ = 5 ^ a.q = # O o o X X X X o O + % , l J.g , % + O o o o o o o O + % : u G.D 1 % @ O o X X X X o o + # - q f. .7 = @ o X ",
"X o @ = 5 ^ a.0 = # O o o X X X X o O @ % , c J.g , % + o o o o o o o O + % : u G.F 1 % @ O o o X X o o o + # - q f.| 7 = @ o X ",
"X o @ = 5 ^ a.0 = # + o o o o o o o O @ % < c J.g , % + O o o o o o o O @ % : u G.D 1 % @ O o o o o o o O + # - q f.| 7 = @ o X ",
"X o @ & 5 ^ a.q - # + O O O o O o O + # & < c J.k , % @ O O o o o o O + @ % : u G.G 2 = # + O o o o o O + @ $ ; q g.| 7 = @ o X ",
"X o @ = 5 ^ a.q ; % # @ + + + + + + @ # = 2 b J.k < = $ @ + + + + + + @ # = , a G.G 2 = $ @ @ + + + + + @ # % : e f.| 7 = @ o X ",
"X o @ = 5 ^ k.e , = % % % $ $ $ $ $ % = ; 5 B J.v 3 ; = % % $ $ % % % % = ; 1 d G.J 7 : = % % $ $ $ $ $ % % = < t g.| 7 = @ o X ",
"X o @ = 5 ^ c.s 8 < , : : : ; : : : : , 2 w L J.S q 2 < , , : : : : : > , 1 9 v G.W e 3 < , : : : : : : : , < 6 p z.| 8 = @ o X ",
"X o @ = 7 ^ Z.U v f s a a i a a a a a s f N ' L.` V g d d s a a s s a a s d v ( L.{ A k d a a a a i a a a a d k K C.| 8 = @ o X ",
"X o @ = 5 ~ Y.J.P.L.P.P.P.P.P.P.P.P.P.L.P.G.L.Y.L.L.L.L.L.P.L.J.L.L.L.L.P.L.L.L.Y.I.L.L.L.P.P.P.P.G.P.P.P.L.P.P.J.Y.| 8 = @ o X ",
"X o @ = 5 ^ S._ R G D D D D D D D D D D H T 3.I.2.T P G G D D D D D D D D H W { L.4.! H G D D D D D D D D D G R _ D.| 8 = @ o X ",
"X o @ = 5 ^ V.k 0 5 2 1 < < < < < < 1 2 5 t L J.K t 8 2 2 2 1 1 1 < < < 2 5 e N G.) y 8 2 2 1 < < < 1 1 1 2 4 9 j b.| 7 = @ o X ",
"X o @ = 5 ^ x.t 1 ; = % % % % % % % * = : 5 B J.N 8 > = = % % % % % % % = : 2 f G.R 9 , - = % % % % % % = = ; 1 t h.| 7 = @ o X ",
"X o @ = 5 ^ k.e : % $ # @ + + + @ @ # % = 1 b J.v 2 = % # @ + + + + @ # $ = < s G.J 5 ; % # @ @ + @ @ @ # # % : e g.| 7 = @ o X ",
"X o @ = 5 ^ a.q ; % @ + O o o o O O + # % < c J.x < = # + O O o o o O + # % , a G.H 4 = # + O O O o O O O @ $ ; q s.| 5 = + o X ",
"X o @ = 5 ^ a.q - # + O o o o o o o O @ % , l J.x < % @ O o o o o o o O @ % : u G.G 2 = # O o o o o o o o + # - q f.| 5 = + o X ",
"X o + = 5 ^ a.q - # + o o X X X X o o + % , l J.k , % + O o o o X X o o + % : u G.G 2 % @ O o o X X X o o O # - q f.| 5 = + o X ",
"X o + = 5 ^ a.q - # O o o X X X X o O @ % , l J.k , % + o o o o X X o O + % : u G.G 1 % @ O o X X X X o o O # - 0 f.| 5 = + o X ",
"X o + = 5 ^ a.0 - # O o o X o o X o o + % , l J.x , % + o o X X X X o O + % : u G.G 1 % @ O o X X X X X o O # - 0 f.| 5 = + o X ",
"X o + = 5 ^ a.0 - # O o o X X o X o o + % , l J.x , % + o o X X X X o O + % : u G.F 1 % @ O o X X X X o o + # - 0 f.| 5 = + o X ",
"X o + = 5 ^ a.0 - # O o o X X o o o O @ % , l J.x < % + o o o o X o o O + % : i G.G 1 % @ O o o o o o o o + # - q f.| 5 & + o X ",
"X o + = 5 ^ a.q ; # + O o o o o o o O @ % < c J.v < % @ O o o o o o o O @ % : a G.G 2 = # O o o o o o o O + $ ; q f.| 7 = + o X ",
"X o + & 5 ^ a.q ; % @ + O O O O O O + # = 1 c J.v 1 = # + O O O O O O + # % , a G.G 2 = # + O O O O O O + @ % ; q g.| 7 = + o X ",
"X o + & 5 ^ k.e : * $ # # @ @ @ # # # % - 2 b J.N 3 - % # # # # @ # # # % = 1 f J.H 5 ; % # # # # @ @ # # $ = > e h.| 7 = + o X ",
"X o + & 5 ^ x.u 2 : ; - = = = = = = - ; < 8 Z L.S 9 < ; - = = = = = = - ; , 8 v G.E 0 < ; - = = = = = = = - : 2 u z.| 7 = + o X ",
"X o + & 7 ^ m.M t 0 9 8 7 8 8 8 8 9 9 9 q p Y J.Q s e 0 9 9 9 9 9 9 9 9 0 e a K G._ s q 9 9 8 8 7 7 7 8 8 8 9 t M v.| 7 = + o X ",
"X o + % 5 ^ L.0.X. . . . . . . . . . .....-.N.Y.N.5.X... . . . .............=.m.Y.Z.-... . . . . . . . . . . .X.7.I.| 5 % + o X ",
"X X O % 2 G s.&.s.s.s.s.s.s.s.s.s.s.s.s.s.s.<.:.<.s.s.s.s.s.s.s.s.s.s.s.s.s.s.<.%.&.&.s.s.s.s.s.s.s.s.s.s.s.s.s.<.s.H 2 % O X X ",
"X X o # ; 5 q q q q 0 0 0 0 9 q q q q q q q e e e q q q q q q q q 0 q q q q q e e e q q q q q 0 0 0 0 9 0 0 q q e w 8 ; # O X X ",
"X X o O # = = = = = = = = = = = = = = = - - - = = = = = = = = = = = = = = = ; - - - - = - - = = = = = = = = = - - = = $ + o X . ",
". X X o O + @ @ # @ @ @ @ @ @ @ @ @ @ @ @ # # # # # @ @ @ @ # # # # # # # # # # # # # # # # @ @ @ @ @ @ @ # # # @ @ + O o X X . ",
". X X X o o o o o o o o o o o o o o o o O O o O o o o o O O O O o o O O O O O O o O o o O o o o o o o o o O O O o o o o X X .   ",
"  . X X X X X X X X X X X X X X X X X X X X X X X X X X X X X X X X X X X X X X X X X X X X X X X X X X X X X X X X X X X . .   "
};
